HIERARCHY
ROOT hip
{
  OFFSET 0 0 0
  CHANNELS 6 Xposition Yposition Zposition Zrotation Yrotation Xrotation
  JOINT abdomen
  {
    OFFSET 0 20.6881 -0.73152
    CHANNELS 3 Zrotation Xrotation Yrotation
    JOINT chest
    {
      OFFSET 0 11.7043 -0.48768
      CHANNELS 3 Zrotation Xrotation Yrotation
      JOINT neck
      {
        OFFSET 0 22.1894 -2.19456
        CHANNELS 3 Zrotation Xrotation Yrotation
        JOINT head
        {
          OFFSET -0.24384 7.07133 1.2192
          CHANNELS 3 Zrotation Xrotation Yrotation
          JOINT leftEye
          {
            OFFSET 4.14528 8.04674 8.04672
            CHANNELS 3 Zrotation Xrotation Yrotation
            End Site
            {
              OFFSET 1 0 0
            }
          }
          JOINT rightEye
          {
            OFFSET -3.6576 8.04674 8.04672
            CHANNELS 3 Zrotation Xrotation Yrotation
            End Site
            {
              OFFSET 1 0 0
            }
          }
        }
      }
      JOINT rCollar
      {
        OFFSET -2.68224 19.2634 -4.8768
        CHANNELS 3 Zrotation Xrotation Yrotation
        JOINT rShldr
        {
          OFFSET -8.77824 -1.95073 1.46304
          CHANNELS 3 Zrotation Xrotation Yrotation
          JOINT rForeArm
          {
            OFFSET -28.1742 -1.7115 0.48768
            CHANNELS 3 Zrotation Xrotation Yrotation
            JOINT rHand
            {
              OFFSET -22.5879 0.773209 7.07136
              CHANNELS 3 Zrotation Xrotation Yrotation
              JOINT rThumb1
              {
                OFFSET -1.2192 -0.487915 3.41376
                CHANNELS 3 Zrotation Xrotation Yrotation
                JOINT rThumb2
                {
                  OFFSET -3.37035 -0.52449 3.41376
                  CHANNELS 3 Zrotation Xrotation Yrotation
                  End Site
                  {
                    OFFSET -1.78271 -1.18214 1.43049
                  }
                }
              }
              JOINT rIndex1
              {
                OFFSET -7.75947 0.938293 5.60832
                CHANNELS 3 Zrotation Xrotation Yrotation
                JOINT rIndex2
                {
                  OFFSET -2.54057 -0.884171 1.56538
                  CHANNELS 3 Zrotation Xrotation Yrotation
                  End Site
                  {
                    OFFSET -1.62519 -0.234802 1.16502
                  }
                }
              }
              JOINT rMid1
              {
                OFFSET -8.24714 1.18213 3.41376
                CHANNELS 3 Zrotation Xrotation Yrotation
                JOINT rMid2
                {
                  OFFSET -3.10165 -0.590103 1.0647
                  CHANNELS 3 Zrotation Xrotation Yrotation
                  End Site
                  {
                    OFFSET -2.48547 -0.328903 0.83742
                  }
                }
              }
              JOINT rRing1
              {
                OFFSET -8.82822 0.546677 1.51678
                CHANNELS 3 Zrotation Xrotation Yrotation
                JOINT rRing2
                {
                  OFFSET -2.60934 -0.819778 -0.0198488
                  CHANNELS 3 Zrotation Xrotation Yrotation
                  End Site
                  {
                    OFFSET -2.33842 -0.294052 0.168128
                  }
                }
              }
              JOINT rPinky1
              {
                OFFSET -8.27202 -0.0477905 -0.4584
                CHANNELS 3 Zrotation Xrotation Yrotation
                JOINT rPinky2
                {
                  OFFSET -1.82734 -0.647385 -0.700984
                  CHANNELS 3 Zrotation Xrotation Yrotation
                  End Site
                  {
                    OFFSET -1.69225 -0.51767 -0.607171
                  }
                }
              }
            }
          }
        }
      }
      JOINT lCollar
      {
        OFFSET 2.68224 19.2634 -4.8768
        CHANNELS 3 Zrotation Xrotation Yrotation
        JOINT lShldr
        {
          OFFSET 8.77824 -1.95073 1.46304
          CHANNELS 3 Zrotation Xrotation Yrotation
          JOINT lForeArm
          {
            OFFSET 28.1742 -1.7115 0.48768
            CHANNELS 3 Zrotation Xrotation Yrotation
            JOINT lHand
            {
              OFFSET 22.5879 0.773209 7.07136
              CHANNELS 3 Zrotation Xrotation Yrotation
              JOINT lThumb1
              {
                OFFSET 1.2192 -0.487915 3.41376
                CHANNELS 3 Zrotation Xrotation Yrotation
                JOINT lThumb2
                {
                  OFFSET 3.37035 -0.52449 3.41376
                  CHANNELS 3 Zrotation Xrotation Yrotation
                  End Site
                  {
                    OFFSET 1.78271 -1.18214 1.43049
                  }
                }
              }
              JOINT lIndex1
              {
                OFFSET 7.75947 0.938293 5.60832
                CHANNELS 3 Zrotation Xrotation Yrotation
                JOINT lIndex2
                {
                  OFFSET 2.54057 -0.884171 1.56538
                  CHANNELS 3 Zrotation Xrotation Yrotation
                  End Site
                  {
                    OFFSET 1.62519 -0.234802 1.16502
                  }
                }
              }
              JOINT lMid1
              {
                OFFSET 8.24714 1.18213 3.41376
                CHANNELS 3 Zrotation Xrotation Yrotation
                JOINT lMid2
                {
                  OFFSET 3.10165 -0.590103 1.0647
                  CHANNELS 3 Zrotation Xrotation Yrotation
                  End Site
                  {
                    OFFSET 2.48547 -0.328903 0.83742
                  }
                }
              }
              JOINT lRing1
              {
                OFFSET 8.82822 0.546677 1.51678
                CHANNELS 3 Zrotation Xrotation Yrotation
                JOINT lRing2
                {
                  OFFSET 2.60934 -0.819778 -0.0198488
                  CHANNELS 3 Zrotation Xrotation Yrotation
                  End Site
                  {
                    OFFSET 2.33842 -0.294052 0.168128
                  }
                }
              }
              JOINT lPinky1
              {
                OFFSET 8.27202 -0.0477905 -0.4584
                CHANNELS 3 Zrotation Xrotation Yrotation
                JOINT lPinky2
                {
                  OFFSET 1.82734 -0.647385 -0.700984
                  CHANNELS 3 Zrotation Xrotation Yrotation
                  End Site
                  {
                    OFFSET 1.69225 -0.51767 -0.607171
                  }
                }
              }
            }
          }
        }
      }
    }
  }
  JOINT rButtock
  {
    OFFSET -8.77824 4.35084 1.2192
    CHANNELS 3 Zrotation Xrotation Yrotation
    JOINT rThigh
    {
      OFFSET 0 -1.70687 -2.19456
      CHANNELS 3 Zrotation Xrotation Yrotation
      JOINT rShin
      {
        OFFSET 0 -36.8199 0.73152
        CHANNELS 3 Zrotation Xrotation Yrotation
        JOINT rFoot
        {
          OFFSET 0.73152 -45.1104 -5.12064
          CHANNELS 3 Zrotation Xrotation Yrotation
          End Site
          {
            OFFSET -1.1221 -3.69964 12.103
          }
        }
      }
    }
  }
  JOINT lButtock
  {
    OFFSET 8.77824 4.35084 1.2192
    CHANNELS 3 Zrotation Xrotation Yrotation
    JOINT lThigh
    {
      OFFSET 0 -1.70687 -2.19456
      CHANNELS 3 Zrotation Xrotation Yrotation
      JOINT lShin
      {
        OFFSET 0 -36.8199 0.73152
        CHANNELS 3 Zrotation Xrotation Yrotation
        JOINT lFoot
        {
          OFFSET -0.73152 -45.1104 -5.12064
          CHANNELS 3 Zrotation Xrotation Yrotation
          End Site
          {
            OFFSET 1.1221 -3.69964 12.103
          }
        }
      }
    }
  }
}
MOTION
Frames:	6
Frame Time:	0.00833333
-3.20571 83.5181 55.7511 -9.8501 5.5091 16.6514 5.62649 -5.10017 7.22877 -7.6516 -8.96801 1.20056 -0.569081 14.3343 -5.90578 15.1141 4.75045 -11.715 -0.0 0.0 0.0 -0.0 0.0 0.0 2.57349e-13 -7.47971e-13 -1.74536e-13 -16.2141 -0.856142 -3.73913 -16.966 -9.61621 31.7407 -0.055765 -7.59643 -1.07095 2.65942e-09 -8.18309e-09 -3.01627e-09 4.61948e-09 -1.41923e-08 -5.21224e-09 2.65942e-09 -8.1831e-09 -3.01629e-09 7.73091 5.47488 0.417314 2.65942e-09 -8.1831e-09 -3.01627e-09 2.90554 0.965183 0.102902 2.65942e-09 -8.18309e-09 -3.01627e-09 10.2786 0.731801 0.0259123 2.65942e-09 -8.18309e-09 -3.01627e-09 2.22167 -0.733487 -0.20892 2.57471e-13 -7.47978e-13 -1.74643e-13 23.0793 18.6455 -9.10854 21.1925 -14.5887 -41.6638 1.86585 -35.6832 5.79253 4.90803e-10 -4.26816e-10 1.57831e-09 7.96872e-10 -8.35629e-10 2.74658e-09 4.90801e-10 -4.26813e-10 1.57832e-09 -7.73091 5.47488 -0.417314 4.90805e-10 -4.26813e-10 1.57832e-09 -2.90554 0.965183 -0.102902 4.90795e-10 -4.26813e-10 1.57832e-09 -10.2786 0.731801 -0.0259123 4.90807e-10 -4.26813e-10 1.57831e-09 -2.22167 -0.733487 0.20892 -2.03217e-16 0.0 -3.88251e-19 4.8546 -8.09248 25.4521 0.0458233 -1.16367 0.406901 -7.9427 -8.00072 -30.0526 2.03217e-16 0.0 3.88251e-19 0.193879 -8.53988 -59.3307 0.244758 15.3838 1.81926 46.4464 -27.8614 72.7764
-3.1756 83.5113 55.7774 -9.7754 5.708 16.6639 5.52339 -5.12104 7.06888 -7.64856 -9.29605 1.13533 -0.66351 14.2575 -5.82095 15.2608 5.21575 -11.6162 -0.0 0.0 0.0 -0.0 0.0 0.0 2.42575e-13 -5.86334e-13 -1.77884e-13 -16.8183 -4.0782 -3.74201 -17.0837 -9.7333 31.9983 -0.00860906 -4.34545 -0.606866 2.36844e-09 -6.93897e-09 -2.56569e-09 4.10978e-09 -1.20337e-08 -4.43962e-09 2.36844e-09 -6.93898e-09 -2.5657e-09 7.73091 5.47488 0.417314 2.36844e-09 -6.93898e-09 -2.56569e-09 2.90554 0.965183 0.102902 2.36844e-09 -6.93898e-09 -2.56569e-09 10.2786 0.731801 0.0259123 2.36843e-09 -6.93897e-09 -2.56568e-09 2.22167 -0.733487 -0.20892 2.42597e-13 -5.86335e-13 -1.78024e-13 23.3355 16.9058 -8.86337 21.2752 -14.7047 -41.8761 1.8423 -35.4925 5.75187 2.20134e-10 -1.03082e-09 1.70351e-09 3.25957e-10 -1.87714e-09 2.95486e-09 2.20131e-10 -1.03082e-09 1.70351e-09 -7.73091 5.47488 -0.417314 2.20136e-10 -1.03082e-09 1.70351e-09 -2.90554 0.965183 -0.102902 2.20128e-10 -1.03082e-09 1.70351e-09 -10.2786 0.731801 -0.0259123 2.20138e-10 -1.03082e-09 1.7035e-09 -2.22167 -0.733487 0.20892 -2.03217e-16 0.0 -3.88251e-19 4.79919 -8.06245 25.4991 0.0443031 -1.23356 0.403017 -8.02145 -8.05505 -30.3148 2.03217e-16 0.0 3.88251e-19 0.147894 -8.56834 -59.5254 0.244202 15.3454 1.8213 46.3657 -27.8825 72.7053
-3.14565 83.5046 55.7783 -9.6892 5.9264 16.7754 5.40268 -5.13541 6.89953 -7.6286 -9.64068 1.06882 -0.7914 14.1398 -5.74627 15.4253 5.70078 -11.5403 -0.0 0.0 0.0 -0.0 0.0 0.0 2.16651e-13 -3.98746e-13 -1.622e-13 -17.3561 -7.55697 -3.83156 -17.2475 -9.89874 32.3567 0.00305234 -0.746305 -0.100802 2.05855e-09 -5.47058e-09 -1.97828e-09 3.56556e-09 -9.48379e-09 -3.42986e-09 2.05855e-09 -5.47058e-09 -1.9783e-09 7.73091 5.47488 0.417314 2.05855e-09 -5.47058e-09 -1.97828e-09 2.90554 0.965183 0.102902 2.05855e-09 -5.47057e-09 -1.97828e-09 10.2786 0.731801 0.0259123 2.05855e-09 -5.47057e-09 -1.97827e-09 2.22167 -0.733487 -0.20892 2.16572e-13 -3.9874e-13 -1.62378e-13 23.4709 15.0659 -8.49879 21.3924 -14.8706 -42.1787 1.81227 -35.2477 5.69992 -1.87978e-11 -1.53156e-09 1.6989e-09 -8.60543e-11 -2.73298e-09 2.93985e-09 -1.88022e-11 -1.53155e-09 1.69891e-09 -7.73091 5.47488 -0.417314 -1.87965e-11 -1.53156e-09 1.69891e-09 -2.90554 0.965183 -0.102902 -1.88017e-11 -1.53156e-09 1.6989e-09 -10.2786 0.731801 -0.0259123 -1.87932e-11 -1.53155e-09 1.69889e-09 -2.22167 -0.733487 0.20892 -2.03217e-16 0.0 -3.88251e-19 4.73272 -8.05966 25.5952 0.0426463 -1.30848 0.398949 -8.12117 -8.11764 -30.6346 2.03217e-16 0.0 3.88251e-19 0.0865673 -8.63287 -59.7315 0.243638 15.3093 1.82284 46.2849 -27.9113 72.6266
-3.12958 83.501 55.7745 -9.6653 6.1694 16.9176 5.32174 -5.14262 6.75254 -7.60088 -9.98805 1.01005 -0.923629 14.0169 -5.71058 15.5269 6.08699 -11.5237 -0.0 0.0 0.0 -0.0 0.0 0.0 1.82906e-13 -2.99971e-13 -1.35024e-13 -17.8605 -11.1462 -3.97859 -17.4327 -10.0895 32.7596 -0.0100819 2.86561 0.403075 1.78703e-09 -4.35576e-09 -1.57339e-09 3.08878e-09 -7.54733e-09 -2.73429e-09 1.78703e-09 -4.35575e-09 -1.5734e-09 7.73091 5.47488 0.417314 1.78703e-09 -4.35575e-09 -1.57339e-09 2.90554 0.965183 0.102902 1.78703e-09 -4.35575e-09 -1.57339e-09 10.2786 0.731801 0.0259123 1.78703e-09 -4.35575e-09 -1.57338e-09 2.22167 -0.733487 -0.20892 1.82771e-13 -2.99962e-13 -1.35223e-13 23.4052 12.8288 -8.09654 21.5004 -15.0247 -42.46 1.77572 -34.9483 5.63662 -1.62425e-10 -1.86723e-09 1.71325e-09 -3.33517e-10 -3.30616e-09 2.96095e-09 -1.62429e-10 -1.86723e-09 1.71326e-09 -7.73091 5.47488 -0.417314 -1.62424e-10 -1.86723e-09 1.71326e-09 -2.90554 0.965183 -0.102902 -1.62428e-10 -1.86723e-09 1.71326e-09 -10.2786 0.731801 -0.0259123 -1.6242e-10 -1.86723e-09 1.71325e-09 -2.22167 -0.733487 0.20892 -2.03217e-16 0.0 -3.88251e-19 4.70026 -8.09 25.7307 0.0414642 -1.37273 0.396392 -8.2462 -8.2059 -30.9684 2.03217e-16 0.0 3.88251e-19 0.0554488 -8.72908 -59.9243 0.243019 15.272 1.82257 46.199 -27.9239 72.5517
-3.12142 83.4991 55.7632 -9.675 6.4156 17.0799 5.29872 -5.15303 6.65397 -7.57215 -10.3342 0.965586 -1.05473 13.8973 -5.73619 15.5448 6.32733 -11.6025 -0.0 0.0 0.0 -0.0 0.0 0.0 1.255e-13 -3.44322e-13 -7.95826e-14 -18.339 -14.9736 -4.18705 -17.6308 -10.2955 33.1965 -0.0364672 6.74208 0.945722 1.62295e-09 -3.78005e-09 -1.40072e-09 2.79921e-09 -6.54614e-09 -2.43969e-09 1.62294e-09 -3.78005e-09 -1.40074e-09 7.73091 5.47488 0.417314 1.62294e-09 -3.78005e-09 -1.40072e-09 2.90554 0.965183 0.102902 1.62295e-09 -3.78004e-09 -1.40072e-09 10.2786 0.731801 0.0259123 1.62295e-09 -3.78004e-09 -1.40071e-09 2.22167 -0.733487 -0.20892 1.25382e-13 -3.44313e-13 -7.97759e-14 23.1446 10.1312 -7.6663 21.5915 -15.1558 -42.6992 1.75817 -34.7681 5.60094 -1.50833e-10 -1.95212e-09 1.73079e-09 -3.1255e-10 -3.45019e-09 2.99301e-09 -1.50836e-10 -1.95212e-09 1.7308e-09 -7.73091 5.47488 -0.417314 -1.50833e-10 -1.95213e-09 1.73079e-09 -2.90554 0.965183 -0.102902 -1.50836e-10 -1.95213e-09 1.73079e-09 -10.2786 0.731801 -0.0259123 -1.50828e-10 -1.95212e-09 1.73078e-09 -2.22167 -0.733487 0.20892 -2.03217e-16 0.0 -3.88251e-19 4.71897 -8.16152 25.9196 0.0410207 -1.42007 0.396543 -8.40739 -8.33413 -31.313 2.03217e-16 0.0 3.88251e-19 0.0664966 -8.85864 -60.0924 0.242361 15.2341 1.82085 46.1203 -27.9291 72.4827
-3.10063 83.4969 55.736 -9.6255 6.6434 17.2629 5.30211 -5.16351 6.581 -7.53588 -10.6866 0.929272 -1.19986 13.7624 -5.80277 15.5231 6.48984 -11.7481 -0.0 0.0 0.0 -0.0 0.0 0.0 4.82356e-14 -4.62687e-13 1.88535e-15 -18.8034 -19.0595 -4.48367 -17.8532 -10.5283 33.6967 -0.113093 10.9462 1.54752 1.51782e-09 -3.42478e-09 -1.30179e-09 2.61162e-09 -5.92642e-09 -2.27209e-09 1.51782e-09 -3.42478e-09 -1.3018e-09 7.73091 5.47488 0.417314 1.51782e-09 -3.42478e-09 -1.30179e-09 2.90554 0.965183 0.102902 1.51782e-09 -3.42478e-09 -1.30179e-09 10.2786 0.731801 0.0259123 1.51782e-09 -3.42478e-09 -1.30178e-09 2.22167 -0.733487 -0.20892 4.8175e-14 -4.62681e-13 1.71141e-15 22.7496 7.12241 -7.18034 21.6872 -15.2944 -42.9531 1.75085 -34.6496 5.57971 -3.22466e-11 -1.84227e-09 1.69065e-09 -1.04733e-10 -3.257e-09 2.92913e-09 -3.22463e-11 -1.84227e-09 1.69067e-09 -7.73091 5.47488 -0.417314 -3.22481e-11 -1.84228e-09 1.69065e-09 -2.90554 0.965183 -0.102902 -3.22504e-11 -1.84228e-09 1.69065e-09 -10.2786 0.731801 -0.0259123 -3.2241e-11 -1.84228e-09 1.69064e-09 -2.22167 -0.733487 0.20892 -2.03217e-16 0.0 -3.88251e-19 4.7639 -8.26843 26.1618 0.0409635 -1.45954 0.398249 -8.60037 -8.48894 -31.6892 2.03217e-16 0.0 3.88251e-19 0.0950489 -9.02247 -60.2512 0.241674 15.197 1.81815 46.047 -27.9346 72.4139
